<svg width="22" height="22" viewBox="0 0 22 22" fill="none" xmlns="http://www.w3.org/2000/svg">
<path d="M8.00976 19.7683V16.6975C8.01175 16.3209 8.17045 15.9603 8.45124 15.6945C8.73203 15.4287 9.11207 15.2792 9.50848 15.2786H12.5465C12.7436 15.2777 12.939 15.3136 13.1215 15.3844C13.304 15.4552 13.4701 15.5595 13.6101 15.6912C13.7502 15.823 13.8616 15.9796 13.938 16.1523C14.0143 16.3249 14.0541 16.5102 14.0551 16.6975V19.7732C14.0552 20.0937 14.1875 20.4014 14.4236 20.6302C14.6598 20.8591 14.981 20.9908 15.3182 20.9972H17.341C17.8188 20.9999 18.2924 20.9132 18.7348 20.742C19.1773 20.5708 19.5799 20.3185 19.9197 19.9995C20.2594 19.6805 20.5298 19.3009 20.7151 18.8826C20.9005 18.4643 20.9973 18.0155 21 17.5616V8.83814C20.9935 8.46932 20.899 8.10669 20.7236 7.77757C20.5483 7.44845 20.2966 7.16142 19.9876 6.93804L13.0611 1.68548C12.4701 1.24157 11.7388 1 10.9854 1C10.232 1 9.50063 1.24157 8.90966 1.68548L2.0128 6.94295C1.70203 7.16571 1.44915 7.45316 1.27357 7.78325C1.098 8.11333 1.00442 8.47728 1 8.84709V17.5612C1.00234 18.015 1.09875 18.464 1.28373 18.8824C1.46872 19.3008 1.73863 19.6805 2.07809 19.9998C2.41755 20.3191 2.81987 20.5717 3.26213 20.7434C3.70438 20.915 4.17793 21.0022 4.65565 21H6.68411C6.85486 21.0008 7.02407 20.9697 7.18216 20.9084C7.34024 20.8471 7.48411 20.7568 7.60543 20.6427C7.72676 20.5285 7.82321 20.3928 7.88928 20.2432C7.95535 20.0937 7.98973 19.9332 7.99046 19.771" stroke="white" stroke-width="2" stroke-linecap="round" stroke-linejoin="round"/>
</svg>
