<svg width="22" height="23" viewBox="0 0 22 23" fill="none" xmlns="http://www.w3.org/2000/svg">
<path d="M8.00976 20.5015V17.3106C8.01175 16.9194 8.17045 16.5447 8.45124 16.2685C8.73203 15.9923 9.11207 15.837 9.50848 15.8364H12.5465C12.7436 15.8354 12.939 15.8728 13.1215 15.9463C13.304 16.0199 13.4701 16.1282 13.6101 16.2651C13.7502 16.402 13.8616 16.5648 13.938 16.7442C14.0143 16.9236 14.0541 17.1161 14.0551 17.3106V20.5066C14.0552 20.8395 14.1875 21.1592 14.4236 21.397C14.6598 21.6348 14.981 21.7717 15.3182 21.7784H17.341C17.8188 21.7812 18.2924 21.6911 18.7348 21.5132C19.1773 21.3353 19.5799 21.0732 19.9197 20.7417C20.2594 20.4102 20.5298 20.0158 20.7151 19.5812C20.9005 19.1466 20.9973 18.6801 21 18.2086V9.14432C20.9935 8.76109 20.899 8.3843 20.7236 8.04232C20.5483 7.70034 20.2966 7.4021 19.9876 7.16999L13.0611 1.71226C12.4701 1.251 11.7388 1 10.9854 1C10.232 1 9.50063 1.251 8.90966 1.71226L2.0128 7.1751C1.70203 7.40656 1.44915 7.70523 1.27357 8.04822C1.098 8.3912 1.00442 8.76936 1 9.15362V18.2081C1.00234 18.6797 1.09875 19.1462 1.28373 19.5809C1.46872 20.0157 1.73863 20.4102 2.07809 20.742C2.41755 21.0738 2.81987 21.3363 3.26213 21.5146C3.70438 21.6929 4.17793 21.7835 4.65565 21.7812H6.68411C6.85486 21.7821 7.02407 21.7498 7.18216 21.6861C7.34024 21.6224 7.48411 21.5285 7.60543 21.4099C7.72676 21.2914 7.82321 21.1503 7.88928 20.9949C7.95535 20.8395 7.98973 20.6728 7.99046 20.5043" stroke="white" stroke-width="2" stroke-linecap="round" stroke-linejoin="round"/>
</svg>
