<svg width="22" height="22" viewBox="0 0 22 22" fill="none" xmlns="http://www.w3.org/2000/svg">
<path d="M20.7065 6.55981L20.0071 5.43622C19.7218 4.98046 19.2528 4.64794 18.703 4.51148C18.1531 4.37502 17.5672 4.4458 17.0737 4.70828C16.8323 4.84052 16.5652 4.92749 16.2875 4.9642C16.0098 5.00092 15.7269 4.98662 15.4552 4.92221C15.1834 4.85781 14.9281 4.74449 14.7037 4.58877C14.4793 4.43305 14.2902 4.23804 14.1473 4.01472L14.1402 4.00394C13.9555 3.71568 13.8562 3.38751 13.8523 3.05241C13.8614 2.79121 13.8147 2.53096 13.715 2.28645C13.6153 2.04193 13.4645 1.81798 13.2713 1.62739C13.078 1.4368 12.846 1.28321 12.5886 1.17557C12.3312 1.06794 12.0534 1.00829 11.7711 1H11.7017H10.2918C9.72511 1 9.18169 1.20824 8.78102 1.57893C8.38034 1.94962 8.15526 2.45237 8.15526 2.9766V2.9901C8.14759 3.51395 7.91698 4.01389 7.51342 4.38142C7.10987 4.74894 6.5659 4.95434 5.99962 4.9532C5.63742 4.94961 5.28264 4.85773 4.97106 4.68683C4.4775 4.42435 3.89162 4.35369 3.34177 4.49014C2.79191 4.6266 2.32293 4.95912 2.03762 5.41489L1.28642 6.55935C1.00271 7.01597 0.92627 7.55807 1.07376 8.06677C1.22126 8.57547 1.58068 9.00935 2.07331 9.27331C2.40046 9.44788 2.67217 9.69905 2.86107 10.0016C3.04997 10.3042 3.14941 10.6474 3.14941 10.9968C3.14941 11.3462 3.04997 11.6894 2.86107 11.9919C2.67217 12.2945 2.40046 12.5456 2.07331 12.7202C1.58223 12.981 1.22306 13.4114 1.07468 13.9169C0.926303 14.4224 1.00086 14.9617 1.28194 15.4165L1.28642 15.4235L1.99695 16.5564C2.27249 17.0185 2.73514 17.3605 3.28319 17.507C3.83124 17.6536 4.41981 17.5927 4.91936 17.3378L4.93389 17.3303C5.17573 17.1999 5.44297 17.1149 5.72036 17.0801C5.99774 17.0452 6.27984 17.0614 6.55049 17.1275C6.82115 17.1936 7.07509 17.3084 7.29776 17.4654C7.52044 17.6223 7.7075 17.8182 7.84826 18.042L7.85832 18.0584C8.04314 18.3468 8.14245 18.6751 8.14624 19.0104C8.14624 19.538 8.3728 20.0442 8.77611 20.4173C9.17942 20.7905 9.72641 21 10.2968 21H11.7037C12.2715 20.9999 12.8163 20.7921 13.2191 20.4219C13.622 20.0517 13.8504 19.5492 13.8543 19.0239C13.8505 18.4997 14.0718 17.9956 14.4696 17.6224C14.8674 17.2492 15.4092 17.0374 15.9757 17.0338H16.0054C16.3668 17.0427 16.7201 17.1342 17.034 17.3001C17.5276 17.5627 18.1136 17.6335 18.6635 17.4969C19.2134 17.3604 19.6823 17.0277 19.9674 16.5717L20.7086 15.4277C20.9942 14.9751 21.0738 14.436 20.9299 13.929C20.7861 13.4221 20.4304 12.9888 19.9413 12.7244L19.9217 12.7137C19.6778 12.5853 19.4637 12.4136 19.2916 12.2086C19.1195 12.0035 18.9928 11.7691 18.9186 11.5187C18.8445 11.2683 18.8244 11.0069 18.8595 10.7493C18.8946 10.4917 18.9842 10.243 19.1233 10.0175L19.1343 9.99944C19.3216 9.69596 19.5935 9.44448 19.9217 9.27139C20.4116 9.00747 20.7691 8.57528 20.9164 8.06881C21.0638 7.56234 20.9891 7.02262 20.7086 6.56684L20.7065 6.55981Z" stroke="#898B8F" stroke-width="2" stroke-linecap="round" stroke-linejoin="round"/>
<path d="M11.0008 13.7379C12.6376 13.7379 13.9644 12.5103 13.9644 10.9961C13.9644 9.48181 12.6376 8.25427 11.0008 8.25427C9.36408 8.25427 8.03723 9.48181 8.03723 10.9961C8.03723 12.5103 9.36408 13.7379 11.0008 13.7379Z" stroke="#898B8F" stroke-width="2" stroke-linecap="round" stroke-linejoin="round"/>
</svg>
