<svg width="18" height="25" viewBox="0 0 18 25" fill="none" xmlns="http://www.w3.org/2000/svg">
<g id="Group">
<path id="Vector" d="M8.7053 1C12.3438 1 15.2968 4.31461 15.2968 8.41171V10.8295C15.2968 12.5352 15.5845 14.2321 16.1515 15.8234C16.4053 16.5268 15.9653 17.3005 15.3222 17.3005H8.7053H8.51915H1.90222C1.25915 17.3005 0.819147 16.5268 1.07299 15.8234C1.63992 14.2321 1.92761 12.5352 1.92761 10.8295V8.4205C1.92761 4.31461 4.88069 1 8.51915 1" stroke="#898B8F" stroke-width="2" stroke-linecap="round" stroke-linejoin="round"/>
<path id="Vector_2" d="M10.8298 20.448V21.424C10.8298 22.7692 9.83138 23.8594 8.61292 23.8594C7.386 23.8594 6.396 22.7692 6.396 21.424V20.448H10.8383H10.8298Z" stroke="#898B8F" stroke-width="2" stroke-linecap="round" stroke-linejoin="round"/>
</g>
</svg>
