<svg width="13" height="13" viewBox="0 0 13 13" fill="none" xmlns="http://www.w3.org/2000/svg">
<g id="Group 2380">
<path id="Path 1155" d="M6.5 1C7.5878 1 8.65116 1.32257 9.55563 1.92692C10.4601 2.53126 11.1651 3.39025 11.5813 4.39524C11.9976 5.40023 12.1065 6.5061 11.8943 7.573C11.6821 8.63989 11.1583 9.6199 10.3891 10.3891C9.6199 11.1583 8.63989 11.6821 7.573 11.8943C6.5061 12.1065 5.40023 11.9976 4.39524 11.5813C3.39025 11.1651 2.53126 10.4601 1.92692 9.55563C1.32257 8.65116 1 7.5878 1 6.5C1 5.04131 1.57946 3.64236 2.61091 2.61091C3.64236 1.57946 5.04131 1 6.5 1V1Z" stroke="#898B8F" stroke-width="1.5"/>
<path id="Path 1154" d="M6.49902 3.56186V6.78909H9.44464" stroke="#898B8F" stroke-width="1.5" stroke-linecap="round" stroke-linejoin="round"/>
</g>
</svg>