<svg xmlns="http://www.w3.org/2000/svg" width="18" height="18" viewBox="0 0 18 18" fill="none">
  <path d="M8.84693 16.9054C7.05289 15.7139 5.39013 14.3142 3.88956 12.7323C2.76781 11.6066 1.91103 10.2182 1.38794 8.67876C1.12032 7.97523 0.988674 7.22209 1.00076 6.46382C1.01285 5.70554 1.16844 4.95752 1.45832 4.26395C1.74821 3.57038 2.16652 2.94533 2.68854 2.42572C3.21056 1.9061 3.8257 1.50248 4.49762 1.23868C5.25633 0.990855 6.05944 0.935059 6.84226 1.07579C7.62508 1.21652 8.36573 1.54984 9.00453 2.0489C9.64334 1.54984 10.384 1.21652 11.1668 1.07579C11.9496 0.935059 12.7527 0.990855 13.5115 1.23868C14.1797 1.50016 14.7918 1.9005 15.3116 2.41611C15.8315 2.93172 16.2486 3.55219 16.5383 4.24097C16.8281 4.92975 16.9847 5.67293 16.9989 6.42674C17.0132 7.18055 16.8847 7.92975 16.6211 8.63022C16.1323 10.1589 15.3145 11.5466 14.2324 12.6838C12.6911 14.2663 10.9909 15.6656 9.16214 16.8569L8.95984 17L8.84693 16.9054Z" fill="#5A40A4" stroke="#5A40A4" stroke-width="1.5" stroke-linecap="round" stroke-linejoin="round"/>
</svg>