<svg width="38" height="38" viewBox="0 0 38 38" fill="none" xmlns="http://www.w3.org/2000/svg">
<path d="M34.3821 20.7922H30.9405C30.7174 20.8034 29.864 20.8815 29.111 21.5787C29.111 21.5787 28.4974 22.1142 28.2576 22.962C28.2576 22.9788 28.2464 22.9899 28.2464 23.0011C27.2257 28.1718 22.6629 32.0707 17.191 32.0707C10.9661 32.0707 5.92371 27.0283 5.92371 20.8034C5.92371 15.3371 9.81708 10.7799 14.9822 9.75359C14.9822 9.75359 14.9822 9.75359 14.9878 9.75359C15.8468 9.54721 16.3488 8.97269 16.3488 8.97269C17.0906 8.23641 17.1799 7.32164 17.191 7.06505V3.61792C7.69748 3.61792 0 11.3154 0 20.809C0 30.3025 7.69748 38 17.191 38C26.6846 38 34.3821 30.3025 34.3821 20.809C34.3821 20.809 34.3821 20.7978 34.3821 20.7922Z" fill="#5A40A4"/>
<path d="M21.0512 16.9547H17.1968C15.0661 16.9547 13.3425 18.6839 13.3425 20.809C13.3425 22.9342 15.0717 24.6633 17.1968 24.6633C19.322 24.6633 21.0512 22.9342 21.0512 20.809V16.9547Z" fill="#5A40A4"/>
<path d="M36.8584 3.38409C37.4814 2.7611 37.4814 1.75102 36.8584 1.12803C36.2354 0.505036 35.2253 0.505036 34.6023 1.12803L31.5969 4.13348C30.9739 4.75647 30.9739 5.76655 31.5969 6.38954C32.2199 7.01253 33.2299 7.01253 33.8529 6.38954L36.8584 3.38409Z" fill="#5A40A4"/>
<path d="M26.0479 6.39024C26.6709 7.01323 27.681 7.01323 28.304 6.39024C28.927 5.76724 28.927 4.75717 28.304 4.13418L25.2985 1.12873C24.6755 0.505734 23.6655 0.505734 23.0425 1.12873C22.4195 1.75172 22.4195 2.76179 23.0425 3.38479L26.0479 6.39024Z" fill="#5A40A4"/>
<path d="M23.0402 12.6888C22.4172 13.3118 22.4172 14.3219 23.0402 14.9448C23.6632 15.5678 24.6732 15.5678 25.2962 14.9448L28.3017 11.9394C28.9247 11.3164 28.9247 10.3063 28.3017 9.68334C27.6787 9.06034 26.6686 9.06034 26.0456 9.68334L23.0402 12.6888Z" fill="#5A40A4"/>
<path d="M33.8508 9.68502C33.2278 9.06203 32.2177 9.06203 31.5947 9.68502C30.9717 10.308 30.9717 11.3181 31.5947 11.9411L34.6002 14.9465C35.2231 15.5695 36.2332 15.5695 36.8562 14.9465C37.4792 14.3235 37.4792 13.3135 36.8562 12.6905L33.8508 9.68502Z" fill="#5A40A4"/>
</svg>
