<svg width="18" height="18" viewBox="0 0 18 18" fill="none" xmlns="http://www.w3.org/2000/svg">
<g id="Iconly Two-tone Star">
<g id="Star-6">
<path id="Star-7" d="M9.60043 1.39181L11.5513 5.53039C11.599 5.63331 11.6697 5.7225 11.7574 5.79019C11.8451 5.85787 11.9471 5.90199 12.0547 5.91884L16.4208 6.5851C16.5976 6.6104 16.7576 6.70859 16.8656 6.85803C16.9639 6.99302 17.011 7.16167 16.9978 7.33121C16.9846 7.50074 16.912 7.65905 16.7941 7.77535L13.6309 11.0095C13.5522 11.0873 13.4935 11.1848 13.4603 11.2929C13.427 11.401 13.4203 11.5163 13.4407 11.6279L14.2029 16.187C14.2286 16.3685 14.1854 16.5534 14.0828 16.7017C13.9801 16.85 13.8261 16.9498 13.6541 16.9797C13.5058 17.0041 13.354 16.9791 13.2198 16.9082L9.32549 14.7593C9.22964 14.7044 9.12232 14.6757 9.01325 14.6757C8.90417 14.6757 8.79681 14.7044 8.70095 14.7593L4.78096 16.924C4.62377 17.0068 4.4423 17.0226 4.27434 16.9681C4.10638 16.9135 3.96485 16.7928 3.8793 16.6311C3.81106 16.4949 3.78699 16.3389 3.8107 16.187L4.57288 11.6279C4.59103 11.5163 4.58323 11.4017 4.5501 11.294C4.51698 11.1863 4.45953 11.0887 4.3827 11.0095L1.19485 7.77461C1.13309 7.70963 1.0841 7.63247 1.05067 7.54753C1.01724 7.4626 1 7.3715 1 7.27956C1 7.18763 1.01724 7.09661 1.05067 7.01168C1.0841 6.92675 1.13309 6.84959 1.19485 6.7846C1.30146 6.68207 1.43345 6.61347 1.57557 6.58666L5.94175 5.9204C6.04883 5.90226 6.1503 5.85754 6.23776 5.79C6.32522 5.72246 6.39614 5.63404 6.44475 5.53196L8.396 1.39328C8.43442 1.30975 8.48838 1.23514 8.55463 1.17392C8.62088 1.1127 8.69808 1.06609 8.78173 1.03681C8.86544 1.00719 8.95391 0.995245 9.042 1.0017C9.1301 1.00816 9.21612 1.03293 9.29512 1.07449C9.42637 1.14335 9.53333 1.25452 9.60043 1.39181Z" stroke="#898B8F" stroke-width="1.5" stroke-linecap="round" stroke-linejoin="round"/>
</g>
</g>
</svg>
