<svg width="22" height="22" viewBox="0 0 22 22" fill="none" xmlns="http://www.w3.org/2000/svg">
<path d="M15.2884 1H18.5443C18.8678 1.00061 19.188 1.06501 19.4866 1.18951C19.7852 1.31402 20.0563 1.49618 20.2844 1.72558C20.5125 1.95499 20.6931 2.22712 20.8159 2.52641C20.9387 2.82569 21.0013 3.14626 21.0001 3.46977V6.76279C21.0013 7.41541 20.7442 8.04199 20.2849 8.50564C19.8256 8.96928 19.2015 9.23229 18.5489 9.23721H15.2931C14.6401 9.23352 14.0153 8.97089 13.5557 8.50698C13.0962 8.04307 12.8395 7.41578 12.8419 6.76279V3.46977C12.8395 2.81801 13.0957 2.1919 13.5544 1.72886C14.013 1.26582 14.6367 1.00369 15.2884 1Z" stroke="#898B8F" stroke-width="2" stroke-linecap="round" stroke-linejoin="round"/>
<path d="M3.45118 1H6.70699C7.02989 1.00122 7.34938 1.0661 7.64717 1.19094C7.94496 1.31577 8.21521 1.49811 8.44245 1.72751C8.66969 1.95691 8.84946 2.22887 8.97147 2.52783C9.09349 2.82679 9.15534 3.14687 9.15351 3.46977V6.76279C9.15534 7.08591 9.09352 7.40622 8.97157 7.70544C8.84961 8.00466 8.66991 8.27693 8.44273 8.5067C8.21555 8.73647 7.94534 8.91925 7.64752 9.04459C7.3497 9.16993 7.03011 9.23538 6.70699 9.23721H3.45118C2.7982 9.23352 2.17336 8.97089 1.71381 8.50698C1.25425 8.04307 0.997543 7.41578 1.00002 6.76279V3.46977C0.998794 3.14665 1.06122 2.82646 1.18374 2.52748C1.30627 2.22849 1.48648 1.95657 1.71409 1.72723C1.9417 1.49789 2.21226 1.31562 2.51031 1.19085C2.80836 1.06607 3.12807 1.00122 3.45118 1Z" stroke="#898B8F" stroke-width="2" stroke-linecap="round" stroke-linejoin="round"/>
<path d="M3.45118 12.7675H6.70699C7.02989 12.7687 7.34938 12.8336 7.64717 12.9584C7.94496 13.0832 8.21521 13.2656 8.44245 13.495C8.66969 13.7244 8.84946 13.9963 8.97147 14.2953C9.09349 14.5942 9.15534 14.9143 9.15351 15.2372V18.5349C9.15599 19.1846 8.90089 19.8088 8.44409 20.2709C7.98729 20.7329 7.366 20.9951 6.7163 21H3.46048C2.8075 20.9988 2.18168 20.7385 1.72039 20.2764C1.25909 19.8142 1.00002 19.1879 1.00002 18.5349V15.2372C0.998794 14.9141 1.06122 14.5939 1.18374 14.2949C1.30627 13.9959 1.48648 13.724 1.71409 13.4947C1.9417 13.2653 2.21226 13.0831 2.51031 12.9583C2.80836 12.8335 3.12807 12.7687 3.45118 12.7675Z" stroke="#898B8F" stroke-width="2" stroke-linecap="round" stroke-linejoin="round"/>
<path d="M15.2884 12.7675H18.5443C18.8678 12.7681 19.188 12.8325 19.4866 12.957C19.7851 13.0815 20.0562 13.2636 20.2843 13.493C20.5125 13.7224 20.6931 13.9946 20.8159 14.2939C20.9387 14.5932 21.0013 14.9137 21.0001 15.2372V18.5349C21.0001 19.1855 20.7429 19.8097 20.2846 20.2715C19.8264 20.7332 19.2041 20.9951 18.5536 21H15.2977C14.6456 20.9963 14.0214 20.7343 13.562 20.2714C13.1026 19.8085 12.8453 19.1824 12.8466 18.5302V15.2372C12.8454 14.9141 12.9078 14.5939 13.0303 14.2949C13.1528 13.9959 13.333 13.724 13.5606 13.4947C13.7883 13.2653 14.0588 13.0831 14.3569 12.9583C14.6549 12.8335 14.9746 12.7687 15.2977 12.7675H15.2884Z" stroke="#898B8F" stroke-width="2" stroke-linecap="round" stroke-linejoin="round"/>
</svg>
