<svg width="22" height="22" viewBox="0 0 22 22" fill="none" xmlns="http://www.w3.org/2000/svg">
<path d="M20.7583 7.80081L18.8787 2.82419C18.6717 2.28558 18.3131 1.82372 17.8494 1.49847C17.3857 1.17322 16.8383 0.999564 16.2782 1.00001H5.70096C5.13513 0.998731 4.58228 1.17537 4.11564 1.50652C3.649 1.83768 3.2906 2.30772 3.08792 2.85438L1.2417 7.9" stroke="#898B8F" stroke-width="2" stroke-linecap="round" stroke-linejoin="round"/>
<path d="M18.0827 6H3.91727C2.30611 6 1 7.40412 1 9.1362V17.8638C1 19.5959 2.30611 21 3.91727 21H18.0827C19.6939 21 21 19.5959 21 17.8638V9.1362C21 7.40412 19.6939 6 18.0827 6Z" stroke="#898B8F" stroke-width="2" stroke-linecap="round" stroke-linejoin="round"/>
<path d="M8.33069 10.3951H13.4484" stroke="#898B8F" stroke-width="2" stroke-linecap="round" stroke-linejoin="round"/>
</svg>
